<svg id="Layer_1" data-name="Layer 1" xmlns="http://www.w3.org/2000/svg" viewBox="0 0 2477.3 2143.57"><defs><style>.cls-1{fill:#1d71b8;}.cls-2{fill:#3c3c3b;}</style></defs><rect class="cls-1" x="406.45" y="196.54" width="100.04" height="698.98" rx="45.04" transform="translate(626.31 895.53) rotate(180)"/><rect class="cls-1" x="536.74" y="380.14" width="100.04" height="698.98" rx="45.04" transform="translate(886.89 1262.71) rotate(-180)"/><rect class="cls-2" x="667.03" y="608.15" width="100.04" height="698.98" rx="45.04" transform="translate(1147.47 1718.73) rotate(-180)"/><rect class="cls-2" x="803.24" y="818.39" width="100.04" height="698.98" rx="45.04" transform="translate(1419.9 2139.21) rotate(180)"/><rect class="cls-2" x="939.46" y="1034.55" width="100.04" height="698.98" rx="45.04" transform="translate(1692.32 2571.54) rotate(180)"/><rect class="cls-2" x="1075.67" y="1253.68" width="100.04" height="698.98" rx="45.04" transform="translate(1964.75 3009.79) rotate(-180)"/><rect class="cls-1" x="1211.88" y="1034.55" width="100.04" height="698.98" rx="45.04" transform="translate(2237.18 2571.54) rotate(-180)"/><rect class="cls-1" x="1348.1" y="818.39" width="100.04" height="698.98" rx="45.04" transform="translate(2509.6 2139.21) rotate(-180)"/><rect class="cls-2" x="2273.57" y="4.52" width="100.04" height="698.98" rx="45.04"/><rect class="cls-1" x="2143.28" y="188.11" width="100.04" height="698.98" rx="45.04"/><rect class="cls-1" x="2012.99" y="416.12" width="100.04" height="698.98" rx="45.04"/><rect class="cls-2" x="1876.77" y="626.36" width="100.04" height="698.98" rx="45.04"/><rect class="cls-2" x="1740.56" y="842.52" width="100.04" height="698.98" rx="45.04"/><rect class="cls-1" x="1604.35" y="1061.65" width="100.04" height="698.98" rx="45.04"/><rect class="cls-1" x="1468.13" y="842.52" width="100.04" height="698.98" rx="45.04"/><rect class="cls-2" x="1331.92" y="626.36" width="100.04" height="698.98" rx="45.04"/><rect class="cls-2" x="1483.32" y="608.15" width="100.04" height="698.98" rx="45.04" transform="translate(2780.05 1718.73) rotate(-180)"/><path class="cls-2" d="M553.14,2052.11c10,0,16,6,18,14l38,158h4l42-158c2-8,8-14,18-14h64a10.72,10.72,0,0,1,10,14l-70,252c-2.4,8-8,14-18,14h-80c-10,0-16-6-18-14l-42-154h-4l-42,154c-2,8-8,14-18,14h-80c-10,0-15.6-6-18-14l-70-252a10.72,10.72,0,0,1,10-14h64c10,0,16,6,18,14l42,158h4l38-158c2-8,8-14,18-14Z" transform="translate(-286.63 -196.54)"/><path class="cls-2" d="M1053.94,2106.11a13.67,13.67,0,0,1-14,14h-170v36h126a13.67,13.67,0,0,1,14,14v40a13.67,13.67,0,0,1-14,14h-126v40h170a13.67,13.67,0,0,1,14,14v40a13.67,13.67,0,0,1-14,14h-244a13.67,13.67,0,0,1-14-14v-252a13.67,13.67,0,0,1,14-14h244a13.67,13.67,0,0,1,14,14Z" transform="translate(-286.63 -196.54)"/><path class="cls-2" d="M1333.93,2182.11v4s60,12,60,64c0,44-38,82-122,82h-160a13.67,13.67,0,0,1-14-14v-252a13.67,13.67,0,0,1,14-14h144c82,0,118,36,118,78C1373.93,2170.11,1333.93,2182.11,1333.93,2182.11Zm-148-66v40h70c18,0,26-8,26-20s-7.6-20-26-20Zm0,104v48h86c20,0,30-10,30-24s-10-24-30-24Z" transform="translate(-286.63 -196.54)"/><path class="cls-2" d="M1673.93,2212.11s18,8,38,44l34,62c3.2,6,0,14-10,14h-62c-16,0-21.6-6-26-14l-34-62c-6.4-12-14-20-36-20h-52v82a13.67,13.67,0,0,1-14,14h-60a13.67,13.67,0,0,1-14-14v-252a13.67,13.67,0,0,1,14-14h146c88,0,130,42,130,92,0,52-54,64-54,64Zm-76-40c26,0,38-12,38-28s-12-28-38-28h-72v56Z" transform="translate(-286.63 -196.54)"/><path class="cls-2" d="M1986.33,2282.11h-126l-14,36c-3.2,8-10,14-18,14h-64c-8,0-13.6-6-10-14l112-252c3.6-8,10-14,18-14h82c8,0,14.4,5.6,18,13.6l112,252.4c3.6,8-2,14-10,14h-68c-8,0-14.8-6-18-14Zm-98-66h70l-32-80h-4Z" transform="translate(-286.63 -196.54)"/><path class="cls-2" d="M2246.73,2248.11h4l70-182c3.2-8,10-14,18-14h68c8,0,13.6,6,10,14l-108,252c-3.6,8-10,13.6-18,13.6l-82,.4c-8,0-14.4-6-18-14l-108-252c-3.6-8,2-14,10-14h64c8,0,14.8,6,18,14Z" transform="translate(-286.63 -196.54)"/><path class="cls-2" d="M2763.92,2192.11c0,90-58,148-164,148s-164-58-164-148,58-148,164-148S2763.92,2102.11,2763.92,2192.11Zm-92,0c0-54-28-82-72-82s-72,28-72,82,28,82,72,82S2671.92,2246.11,2671.92,2192.11Z" transform="translate(-286.63 -196.54)"/></svg>