<?xml version="1.0" encoding="utf-8"?>
<!-- Generator: Adobe Illustrator 24.1.1, SVG Export Plug-In . SVG Version: 6.00 Build 0)  -->
<svg version="1.1" id="Layer_1" xmlns="http://www.w3.org/2000/svg" xmlns:xlink="http://www.w3.org/1999/xlink" x="0px" y="0px"
	 viewBox="0 0 3000 3000" style="enable-background:new 0 0 3000 3000;" xml:space="preserve">
<style type="text/css">
	.st0{fill:#1D71B8;}
	.st1{fill:#3C3C3B;}
</style>
<path class="st0" d="M191.18,1394.48L191.18,1394.48c13.17,0,23.84-10.67,23.84-23.84v-285.48c0-13.17-10.67-23.84-23.84-23.84h0
	c-13.17,0-23.84,10.67-23.84,23.84v285.48C167.34,1383.81,178.01,1394.48,191.18,1394.48z"/>
<path class="st0" d="M253.28,1481.99L253.28,1481.99c13.17,0,23.84-10.67,23.84-23.84v-285.48c0-13.17-10.67-23.84-23.84-23.84h0
	c-13.17,0-23.84,10.67-23.84,23.84v285.48C229.44,1471.32,240.12,1481.99,253.28,1481.99z"/>
<path class="st1" d="M315.38,1590.67L315.38,1590.67c13.17,0,23.84-10.67,23.84-23.84v-285.48c0-13.17-10.67-23.84-23.84-23.84h0
	c-13.17,0-23.84,10.67-23.84,23.84v285.48C291.54,1580,302.22,1590.67,315.38,1590.67z"/>
<path class="st1" d="M380.31,1690.88L380.31,1690.88c13.17,0,23.84-10.67,23.84-23.84v-285.48c0-13.17-10.67-23.84-23.84-23.84h0
	c-13.17,0-23.84,10.67-23.84,23.84v285.48C356.47,1680.21,367.14,1690.88,380.31,1690.88z"/>
<path class="st1" d="M445.23,1793.91L445.23,1793.91c13.17,0,23.84-10.67,23.84-23.84v-285.48c0-13.17-10.67-23.84-23.84-23.84h0
	c-13.17,0-23.84,10.67-23.84,23.84v285.48C421.39,1783.24,432.07,1793.91,445.23,1793.91z"/>
<path class="st1" d="M510.16,1898.35L510.16,1898.35c13.17,0,23.84-10.67,23.84-23.84v-285.48c0-13.17-10.67-23.84-23.84-23.84h0
	c-13.17,0-23.84,10.67-23.84,23.84v285.48C486.32,1887.68,496.99,1898.35,510.16,1898.35z"/>
<path class="st0" d="M575.08,1793.91L575.08,1793.91c13.17,0,23.84-10.67,23.84-23.84v-285.48c0-13.17-10.67-23.84-23.84-23.84l0,0
	c-13.17,0-23.84,10.67-23.84,23.84v285.48C551.24,1783.24,561.91,1793.91,575.08,1793.91z"/>
<path class="st0" d="M640.01,1690.88L640.01,1690.88c13.17,0,23.84-10.67,23.84-23.84v-285.48c0-13.17-10.67-23.84-23.84-23.84h0
	c-13.17,0-23.84,10.67-23.84,23.84v285.48C616.17,1680.21,626.84,1690.88,640.01,1690.88z"/>
<path class="st1" d="M1217.74,1396.64L1217.74,1396.64c-13.17,0-23.84-10.67-23.84-23.84v-285.48c0-13.17,10.67-23.84,23.84-23.84
	l0,0c13.17,0,23.84,10.67,23.84,23.84v285.48C1241.58,1385.96,1230.91,1396.64,1217.74,1396.64z"/>
<path class="st0" d="M1155.64,1484.14L1155.64,1484.14c-13.17,0-23.84-10.67-23.84-23.84v-285.48c0-13.17,10.67-23.84,23.84-23.84
	l0,0c13.17,0,23.84,10.67,23.84,23.84v285.48C1179.48,1473.47,1168.8,1484.14,1155.64,1484.14z"/>
<path class="st0" d="M1093.54,1592.82L1093.54,1592.82c-13.17,0-23.84-10.67-23.84-23.84V1283.5c0-13.17,10.67-23.84,23.84-23.84h0
	c13.17,0,23.84,10.67,23.84,23.84v285.48C1117.38,1582.15,1106.7,1592.82,1093.54,1592.82z"/>
<path class="st1" d="M1028.61,1693.03L1028.61,1693.03c-13.17,0-23.84-10.67-23.84-23.84v-285.48c0-13.17,10.67-23.84,23.84-23.84
	l0,0c13.17,0,23.84,10.67,23.84,23.84v285.48C1052.45,1682.36,1041.78,1693.03,1028.61,1693.03z"/>
<path class="st1" d="M963.69,1796.06L963.69,1796.06c-13.17,0-23.84-10.67-23.84-23.84v-285.48c0-13.17,10.67-23.84,23.84-23.84h0
	c13.17,0,23.84,10.67,23.84,23.84v285.48C987.53,1785.39,976.85,1796.06,963.69,1796.06z"/>
<path class="st0" d="M898.76,1900.51L898.76,1900.51c-13.17,0-23.84-10.67-23.84-23.84v-285.48c0-13.17,10.67-23.84,23.84-23.84h0
	c13.17,0,23.84,10.67,23.84,23.84v285.48C922.6,1889.83,911.93,1900.51,898.76,1900.51z"/>
<path class="st0" d="M833.84,1796.06L833.84,1796.06c-13.17,0-23.84-10.67-23.84-23.84v-285.48c0-13.17,10.67-23.84,23.84-23.84h0
	c13.17,0,23.84,10.67,23.84,23.84v285.48C857.68,1785.39,847.01,1796.06,833.84,1796.06z"/>
<path class="st1" d="M768.91,1693.03L768.91,1693.03c-13.17,0-23.84-10.67-23.84-23.84v-285.48c0-13.17,10.67-23.84,23.84-23.84l0,0
	c13.17,0,23.84,10.67,23.84,23.84v285.48C792.75,1682.36,782.08,1693.03,768.91,1693.03z"/>
<path class="st1" d="M704.46,1590.67L704.46,1590.67c13.17,0,23.84-10.67,23.84-23.84v-285.48c0-13.17-10.67-23.84-23.84-23.84h0
	c-13.17,0-23.84,10.67-23.84,23.84v285.48C680.62,1580,691.29,1590.67,704.46,1590.67z"/>
<g>
	<path class="st1" d="M1510.73,1428.21c6,0,9.6,3.6,10.8,8.4l22.8,94.8h2.4l25.2-94.8c1.2-4.8,4.8-8.4,10.8-8.4h38.4
		c3.6,0,7.44,3.6,6,8.4l-42,151.2c-1.44,4.8-4.8,8.4-10.8,8.4h-48c-6,0-9.6-3.6-10.8-8.4l-25.2-92.4h-2.4l-25.2,92.4
		c-1.2,4.8-4.8,8.4-10.8,8.4h-48c-6,0-9.36-3.6-10.8-8.4l-42-151.2c-1.44-4.8,2.4-8.4,6-8.4h38.4c6,0,9.6,3.6,10.8,8.4l25.2,94.8
		h2.4l22.8-94.8c1.2-4.8,4.8-8.4,10.8-8.4H1510.73z"/>
	<path class="st1" d="M1811.21,1460.61c0,4.8-3.6,8.4-8.4,8.4h-102v21.6h75.6c4.8,0,8.4,3.6,8.4,8.4v24c0,4.8-3.6,8.4-8.4,8.4h-75.6
		v24h102c4.8,0,8.4,3.6,8.4,8.4v24c0,4.8-3.6,8.4-8.4,8.4h-146.4c-4.8,0-8.4-3.6-8.4-8.4v-151.2c0-4.8,3.6-8.4,8.4-8.4h146.4
		c4.8,0,8.4,3.6,8.4,8.4V1460.61z"/>
	<path class="st1" d="M1979.21,1506.21v2.4c0,0,36,7.2,36,38.4c0,26.4-22.8,49.2-73.2,49.2h-96c-4.8,0-8.4-3.6-8.4-8.4v-151.2
		c0-4.8,3.6-8.4,8.4-8.4h86.4c49.2,0,70.8,21.6,70.8,46.8C2003.21,1499.01,1979.21,1506.21,1979.21,1506.21z M1890.41,1466.61v24h42
		c10.8,0,15.6-4.8,15.6-12s-4.56-12-15.6-12H1890.41z M1890.41,1529.01v28.8h51.6c12,0,18-6,18-14.4s-6-14.4-18-14.4H1890.41z"/>
	<path class="st1" d="M2183.21,1524.21c0,0,10.8,4.8,22.8,26.4l20.4,37.2c1.92,3.6,0,8.4-6,8.4h-37.2c-9.6,0-12.96-3.6-15.6-8.4
		l-20.4-37.2c-3.84-7.2-8.4-12-21.6-12h-31.2v49.2c0,4.8-3.6,8.4-8.4,8.4h-36c-4.8,0-8.4-3.6-8.4-8.4v-151.2c0-4.8,3.6-8.4,8.4-8.4
		h87.6c52.8,0,78,25.2,78,55.2c0,31.2-32.4,38.4-32.4,38.4V1524.21z M2137.61,1500.21c15.6,0,22.8-7.2,22.8-16.8
		c0-9.6-7.2-16.8-22.8-16.8h-43.2v33.6H2137.61z"/>
	<path class="st1" d="M2370.64,1566.21h-75.6l-8.4,21.6c-1.92,4.8-6,8.4-10.8,8.4h-38.4c-4.8,0-8.16-3.6-6-8.4l67.2-151.2
		c2.16-4.8,6-8.4,10.8-8.4h49.2c4.8,0,8.64,3.36,10.8,8.16l67.2,151.44c2.16,4.8-1.2,8.4-6,8.4h-40.8c-4.8,0-8.88-3.6-10.8-8.4
		L2370.64,1566.21z M2311.84,1526.61h42l-19.2-48h-2.4L2311.84,1526.61z"/>
	<path class="st1" d="M2526.88,1545.81h2.4l42-109.2c1.92-4.8,6-8.4,10.8-8.4h40.8c4.8,0,8.16,3.6,6,8.4l-64.8,151.2
		c-2.16,4.8-6,8.16-10.8,8.16l-49.2,0.24c-4.8,0-8.64-3.6-10.8-8.4l-64.8-151.2c-2.16-4.8,1.2-8.4,6-8.4h38.4
		c4.8,0,8.88,3.6,10.8,8.4L2526.88,1545.81z"/>
	<path class="st1" d="M2837.2,1512.21c0,54-34.8,88.8-98.4,88.8s-98.4-34.8-98.4-88.8c0-54,34.8-88.8,98.4-88.8
		S2837.2,1458.21,2837.2,1512.21z M2782,1512.21c0-32.4-16.8-49.2-43.2-49.2c-26.4,0-43.2,16.8-43.2,49.2
		c0,32.4,16.8,49.2,43.2,49.2C2765.2,1561.41,2782,1544.61,2782,1512.21z"/>
</g>
</svg>
