<svg id="Layer_1" data-name="Layer 1" xmlns="http://www.w3.org/2000/svg" viewBox="0 0 2790.1 917.83"><defs><style>.cls-1{fill:#1d71b8;}.cls-2{fill:#3c3c3b;}</style></defs><rect class="cls-1" x="82.47" y="948.52" width="52.15" height="364.38" rx="26.07" transform="translate(134.62 1312.9) rotate(180)"/><rect class="cls-1" x="150.39" y="1044.23" width="52.15" height="364.38" rx="26.07" transform="translate(270.47 1504.32) rotate(180)"/><rect class="cls-2" x="218.32" y="1163.09" width="52.15" height="364.38" rx="26.07" transform="translate(406.31 1742.04) rotate(180)"/><rect class="cls-2" x="289.32" y="1272.69" width="52.15" height="364.38" rx="26.07" transform="translate(548.33 1961.24) rotate(-180)"/><rect class="cls-2" x="360.33" y="1385.38" width="52.15" height="364.38" rx="26.07" transform="translate(690.34 2186.62) rotate(180)"/><rect class="cls-2" x="431.34" y="1499.61" width="52.15" height="364.38" rx="26.07" transform="translate(832.36 2415.08) rotate(180)"/><rect class="cls-1" x="502.35" y="1385.38" width="52.15" height="364.38" rx="26.07" transform="translate(974.38 2186.62) rotate(180)"/><rect class="cls-1" x="573.36" y="1272.69" width="52.15" height="364.38" rx="26.07" transform="translate(1116.4 1961.24) rotate(180)"/><rect class="cls-2" x="1122.76" y="2.35" width="52.15" height="364.38" rx="26.07"/><rect class="cls-1" x="1054.84" y="98.06" width="52.15" height="364.38" rx="26.07"/><rect class="cls-1" x="986.92" y="216.92" width="52.15" height="364.38" rx="26.07"/><rect class="cls-2" x="915.91" y="326.52" width="52.15" height="364.38" rx="26.07"/><rect class="cls-2" x="844.9" y="439.21" width="52.15" height="364.38" rx="26.07"/><rect class="cls-1" x="773.89" y="553.44" width="52.15" height="364.38" rx="26.07"/><rect class="cls-1" x="702.88" y="439.21" width="52.15" height="364.38" rx="26.07"/><rect class="cls-2" x="631.87" y="326.52" width="52.15" height="364.38" rx="26.07"/><rect class="cls-2" x="643.85" y="1163.09" width="52.15" height="364.38" rx="26.07" transform="translate(1257.38 1742.04) rotate(180)"/><path class="cls-2" d="M1489.83,1412.44a11,11,0,0,1,11.25,8.75l23.77,98.82h2.5l26.27-98.82a11,11,0,0,1,11.26-8.75h40a6.7,6.7,0,0,1,6.25,8.75l-43.78,157.62c-1.5,5-5,8.75-11.26,8.75h-50a11,11,0,0,1-11.26-8.75l-26.27-96.32h-2.5l-26.27,96.32a11,11,0,0,1-11.26,8.75h-50c-6.26,0-9.76-3.75-11.26-8.75l-43.78-157.62a6.7,6.7,0,0,1,6.25-8.75h40a11,11,0,0,1,11.26,8.75l26.27,98.82h2.5l23.77-98.82a11,11,0,0,1,11.25-8.75Z" transform="translate(-82.47 -948.52)"/><path class="cls-2" d="M1803.05,1446.21a8.55,8.55,0,0,1-8.75,8.76H1688v22.51h78.81a8.55,8.55,0,0,1,8.75,8.76v25a8.54,8.54,0,0,1-8.75,8.75H1688v25H1794.3a8.55,8.55,0,0,1,8.75,8.76v25a8.54,8.54,0,0,1-8.75,8.75H1641.69a8.55,8.55,0,0,1-8.76-8.75V1421.19a8.55,8.55,0,0,1,8.76-8.75H1794.3a8.54,8.54,0,0,1,8.75,8.75Z" transform="translate(-82.47 -948.52)"/><path class="cls-2" d="M1978.18,1493.75v2.5s37.53,7.5,37.53,40c0,27.52-23.77,51.28-76.31,51.28H1839.33a8.54,8.54,0,0,1-8.75-8.75V1421.19a8.54,8.54,0,0,1,8.75-8.75h90.07c51.28,0,73.8,22.51,73.8,48.78C2003.2,1486.24,1978.18,1493.75,1978.18,1493.75Zm-92.57-41.28v25h43.79c11.25,0,16.26-5,16.26-12.51s-4.76-12.5-16.26-12.5Zm0,65v30h53.79c12.51,0,18.77-6.25,18.77-15s-6.26-15-18.77-15Z" transform="translate(-82.47 -948.52)"/><path class="cls-2" d="M2190.83,1512.51s11.26,5,23.77,27.52l21.27,38.78c2,3.75,0,8.75-6.26,8.75h-38.78c-10,0-13.51-3.75-16.26-8.75L2153.31,1540c-4-7.51-8.76-12.51-22.52-12.51h-32.52v51.29a8.55,8.55,0,0,1-8.76,8.75H2052a8.54,8.54,0,0,1-8.75-8.75V1421.19a8.54,8.54,0,0,1,8.75-8.75h91.32c55,0,81.31,26.27,81.31,57.54,0,32.52-33.78,40-33.78,40Zm-47.53-25c16.26,0,23.77-7.5,23.77-17.51s-7.51-17.51-23.77-17.51h-45v35Z" transform="translate(-82.47 -948.52)"/><path class="cls-2" d="M2386.22,1556.29h-78.8l-8.76,22.52c-2,5-6.25,8.75-11.26,8.75h-40c-5,0-8.51-3.75-6.26-8.75l70.05-157.62c2.25-5,6.26-8.75,11.26-8.75h51.29c5,0,9,3.5,11.25,8.5L2455,1578.81c2.26,5-1.25,8.75-6.25,8.75h-42.53c-5,0-9.26-3.75-11.26-8.75ZM2324.93,1515h43.78l-20-50h-2.5Z" transform="translate(-82.47 -948.52)"/><path class="cls-2" d="M2549.09,1535h2.51l43.78-113.83c2-5,6.25-8.75,11.26-8.75h42.53c5,0,8.5,3.75,6.25,8.75l-67.55,157.62c-2.25,5-6.25,8.5-11.25,8.5l-51.29.25c-5,0-9-3.75-11.26-8.75l-67.55-157.62c-2.25-5,1.25-8.75,6.26-8.75h40c5,0,9.26,3.75,11.26,8.75Z" transform="translate(-82.47 -948.52)"/><path class="cls-2" d="M2872.58,1500c0,56.29-36.28,92.57-102.58,92.57s-102.57-36.28-102.57-92.57,36.28-92.57,102.57-92.57S2872.58,1443.71,2872.58,1500Zm-57.54,0c0-33.77-17.52-51.29-45-51.29s-45,17.52-45,51.29,17.51,51.29,45,51.29S2815,1533.77,2815,1500Z" transform="translate(-82.47 -948.52)"/></svg>