<?xml version="1.0" encoding="utf-8"?>
<!-- Generator: Adobe Illustrator 24.1.1, SVG Export Plug-In . SVG Version: 6.00 Build 0)  -->
<svg version="1.1" id="Layer_1" xmlns="http://www.w3.org/2000/svg" xmlns:xlink="http://www.w3.org/1999/xlink" x="0px" y="0px"
	 viewBox="0 0 3000 3000" style="enable-background:new 0 0 3000 3000;" xml:space="preserve">
<style type="text/css">
	.st0{fill:#1D71B8;}
	.st1{fill:#3C3C3B;}
</style>
<path class="st0" d="M787.26,1192.6h15.55c13.17,0,23.84-10.67,23.84-23.84v-394.1c0-13.17-10.67-23.84-23.84-23.84h-15.55
	c-13.17,0-23.84,10.67-23.84,23.84v394.1C763.42,1181.93,774.1,1192.6,787.26,1192.6z"/>
<path class="st0" d="M869.61,1308.64h15.55c13.17,0,23.84-10.67,23.84-23.84V890.7c0-13.17-10.67-23.84-23.84-23.84h-15.55
	c-13.17,0-23.84,10.67-23.84,23.84v394.1C845.77,1297.96,856.45,1308.64,869.61,1308.64z"/>
<path class="st1" d="M951.96,1452.75h15.55c13.17,0,23.84-10.67,23.84-23.84v-394.1c0-13.17-10.67-23.84-23.84-23.84h-15.55
	c-13.17,0-23.84,10.67-23.84,23.84v394.1C928.12,1442.07,938.79,1452.75,951.96,1452.75z"/>
<path class="st1" d="M1038.05,1585.63h15.55c13.17,0,23.84-10.67,23.84-23.84v-394.1c0-13.17-10.67-23.84-23.84-23.84h-15.55
	c-13.17,0-23.84,10.67-23.84,23.84v394.1C1014.21,1574.95,1024.89,1585.63,1038.05,1585.63z"/>
<path class="st1" d="M1124.14,1722.25h15.55c13.17,0,23.84-10.67,23.84-23.84v-394.1c0-13.17-10.67-23.84-23.84-23.84h-15.55
	c-13.17,0-23.84,10.67-23.84,23.84v394.1C1100.3,1711.58,1110.98,1722.25,1124.14,1722.25z"/>
<path class="st1" d="M1210.24,1860.75h15.55c13.17,0,23.84-10.67,23.84-23.84v-394.1c0-13.17-10.67-23.84-23.84-23.84h-15.55
	c-13.17,0-23.84,10.67-23.84,23.84v394.1C1186.4,1850.07,1197.07,1860.75,1210.24,1860.75z"/>
<path class="st0" d="M1296.33,1722.25h15.55c13.17,0,23.84-10.67,23.84-23.84v-394.1c0-13.17-10.67-23.84-23.84-23.84h-15.55
	c-13.17,0-23.84,10.67-23.84,23.84v394.1C1272.49,1711.58,1283.16,1722.25,1296.33,1722.25z"/>
<path class="st0" d="M1382.42,1585.63h15.55c13.17,0,23.84-10.67,23.84-23.84v-394.1c0-13.17-10.67-23.84-23.84-23.84h-15.55
	c-13.17,0-23.84,10.67-23.84,23.84v394.1C1358.58,1574.95,1369.25,1585.63,1382.42,1585.63z"/>
<path class="st1" d="M2164.06,1195.46h-15.55c-13.17,0-23.84-10.67-23.84-23.84v-394.1c0-13.17,10.67-23.84,23.84-23.84h15.55
	c13.17,0,23.84,10.67,23.84,23.84v394.1C2187.9,1184.78,2177.22,1195.46,2164.06,1195.46z"/>
<path class="st0" d="M2081.71,1311.49h-15.55c-13.17,0-23.84-10.67-23.84-23.84v-394.1c0-13.17,10.67-23.84,23.84-23.84h15.55
	c13.17,0,23.84,10.67,23.84,23.84v394.1C2105.55,1300.82,2094.87,1311.49,2081.71,1311.49z"/>
<path class="st0" d="M1999.36,1455.6h-15.55c-13.17,0-23.84-10.67-23.84-23.84v-394.1c0-13.17,10.67-23.84,23.84-23.84h15.55
	c13.17,0,23.84,10.67,23.84,23.84v394.1C2023.2,1444.93,2012.53,1455.6,1999.36,1455.6z"/>
<path class="st1" d="M1913.27,1588.48h-15.55c-13.17,0-23.84-10.67-23.84-23.84v-394.1c0-13.17,10.67-23.84,23.84-23.84h15.55
	c13.17,0,23.84,10.67,23.84,23.84v394.1C1937.11,1577.81,1926.43,1588.48,1913.27,1588.48z"/>
<path class="st1" d="M1827.18,1725.11h-15.55c-13.17,0-23.84-10.67-23.84-23.84v-394.1c0-13.17,10.67-23.84,23.84-23.84h15.55
	c13.17,0,23.84,10.67,23.84,23.84v394.1C1851.02,1714.43,1840.34,1725.11,1827.18,1725.11z"/>
<path class="st0" d="M1741.08,1863.6h-15.55c-13.17,0-23.84-10.67-23.84-23.84v-394.1c0-13.17,10.67-23.84,23.84-23.84h15.55
	c13.17,0,23.84,10.67,23.84,23.84v394.1C1764.92,1852.93,1754.25,1863.6,1741.08,1863.6z"/>
<path class="st0" d="M1654.99,1725.11h-15.55c-13.17,0-23.84-10.67-23.84-23.84v-394.1c0-13.17,10.67-23.84,23.84-23.84h15.55
	c13.17,0,23.84,10.67,23.84,23.84v394.1C1678.83,1714.43,1668.16,1725.11,1654.99,1725.11z"/>
<path class="st1" d="M1568.9,1588.48h-15.55c-13.17,0-23.84-10.67-23.84-23.84v-394.1c0-13.17,10.67-23.84,23.84-23.84h15.55
	c13.17,0,23.84,10.67,23.84,23.84v394.1C1592.74,1577.81,1582.07,1588.48,1568.9,1588.48z"/>
<path class="st1" d="M1467.89,1452.75h15.55c13.17,0,23.84-10.67,23.84-23.84v-394.1c0-13.17-10.67-23.84-23.84-23.84h-15.55
	c-13.17,0-23.84,10.67-23.84,23.84v394.1C1444.05,1442.07,1454.72,1452.75,1467.89,1452.75z"/>
<g>
	<path class="st1" d="M1022.44,1943.3c4.66,0,7.46,2.8,8.39,6.53l17.72,73.66h1.87l19.58-73.66c0.93-3.73,3.73-6.53,8.39-6.53h29.84
		c2.8,0,5.78,2.8,4.66,6.53l-32.64,117.49c-1.12,3.73-3.73,6.53-8.39,6.53h-37.3c-4.66,0-7.46-2.8-8.39-6.53l-19.58-71.8h-1.86
		l-19.58,71.8c-0.93,3.73-3.73,6.53-8.39,6.53h-37.3c-4.66,0-7.27-2.8-8.39-6.53l-32.64-117.49c-1.12-3.73,1.87-6.53,4.66-6.53
		h29.84c4.66,0,7.46,2.8,8.39,6.53l19.58,73.66h1.87l17.72-73.66c0.93-3.73,3.73-6.53,8.39-6.53H1022.44z"/>
	<path class="st1" d="M1255.92,1968.47c0,3.73-2.8,6.53-6.53,6.53h-79.26v16.78h58.74c3.73,0,6.53,2.8,6.53,6.53v18.65
		c0,3.73-2.8,6.53-6.53,6.53h-58.74v18.65h79.26c3.73,0,6.53,2.8,6.53,6.53v18.65c0,3.73-2.8,6.53-6.53,6.53h-113.76
		c-3.73,0-6.53-2.8-6.53-6.53v-117.49c0-3.73,2.8-6.53,6.53-6.53h113.76c3.73,0,6.53,2.8,6.53,6.53V1968.47z"/>
	<path class="st1" d="M1386.46,2003.91v1.87c0,0,27.97,5.59,27.97,29.84c0,20.51-17.72,38.23-56.88,38.23h-74.6
		c-3.73,0-6.53-2.8-6.53-6.53v-117.49c0-3.73,2.8-6.53,6.53-6.53h67.14c38.23,0,55.01,16.78,55.01,36.37
		C1405.11,1998.31,1386.46,2003.91,1386.46,2003.91z M1317.46,1973.14v18.65h32.64c8.39,0,12.12-3.73,12.12-9.32
		s-3.54-9.32-12.12-9.32H1317.46z M1317.46,2021.62V2044h40.09c9.32,0,13.99-4.66,13.99-11.19s-4.66-11.19-13.99-11.19H1317.46z"/>
	<path class="st1" d="M1544.97,2017.89c0,0,8.39,3.73,17.72,20.51l15.85,28.91c1.49,2.8,0,6.53-4.66,6.53h-28.91
		c-7.46,0-10.07-2.8-12.12-6.53l-15.85-28.91c-2.98-5.59-6.53-9.33-16.78-9.33h-24.24v38.23c0,3.73-2.8,6.53-6.53,6.53h-27.97
		c-3.73,0-6.53-2.8-6.53-6.53v-117.49c0-3.73,2.8-6.53,6.53-6.53h68.07c41.03,0,60.61,19.58,60.61,42.89
		c0,24.24-25.18,29.84-25.18,29.84V2017.89z M1509.53,1999.24c12.12,0,17.72-5.59,17.72-13.05c0-7.46-5.59-13.05-17.72-13.05h-33.57
		v26.11H1509.53z"/>
	<path class="st1" d="M1690.61,2050.53h-58.74l-6.53,16.78c-1.49,3.73-4.66,6.53-8.39,6.53h-29.84c-3.73,0-6.34-2.8-4.66-6.53
		l52.22-117.49c1.68-3.73,4.66-6.53,8.39-6.53h38.23c3.73,0,6.71,2.61,8.39,6.34l52.22,117.67c1.68,3.73-0.93,6.53-4.66,6.53h-31.7
		c-3.73,0-6.9-2.8-8.39-6.53L1690.61,2050.53z M1644.92,2019.76h32.64l-14.92-37.3h-1.87L1644.92,2019.76z"/>
	<path class="st1" d="M1812.01,2034.68h1.87l32.64-84.85c1.49-3.73,4.66-6.53,8.39-6.53h31.7c3.73,0,6.34,2.8,4.66,6.53
		l-50.35,117.49c-1.68,3.73-4.66,6.34-8.39,6.34l-38.23,0.19c-3.73,0-6.71-2.8-8.39-6.53l-50.35-117.49
		c-1.68-3.73,0.93-6.53,4.66-6.53h29.84c3.73,0,6.9,2.8,8.39,6.53L1812.01,2034.68z"/>
	<path class="st1" d="M2053.14,2008.57c0,41.96-27.04,69-76.46,69s-76.46-27.04-76.46-69c0-41.96,27.04-69,76.46-69
		S2053.14,1966.61,2053.14,2008.57z M2010.25,2008.57c0-25.18-13.05-38.23-33.57-38.23c-20.51,0-33.57,13.05-33.57,38.23
		c0,25.18,13.05,38.23,33.57,38.23C1997.19,2046.8,2010.25,2033.74,2010.25,2008.57z"/>
</g>
</svg>
