<svg xmlns="http://www.w3.org/2000/svg" xmlns:xlink="http://www.w3.org/1999/xlink" version="1.1" style="" xml:space="preserve" width="3000" height="3000"><rect id="backgroundrect" width="100%" height="100%" x="0" y="0" fill="none" stroke="none" class="" style=""/>
<style type="text/css">
	.st0{fill:#1D71B8;}
	.st1{fill:#3C3C3B;}
</style>




<path d="M100,100 h200 a20,20 0 0 1 20,20 v200 a20,20 0 0 1 -20,20 h-200 a20,20 0 0 1 -20,-20 v-200 a20,20 0 0 1 20,-20 z" />













<g class="currentLayer" style=""><title>Layer 1</title><path fill="#ffffff" fill-opacity="1" stroke="#ffffff" stroke-opacity="1" stroke-width="2" stroke-dasharray="none" stroke-linejoin="round" stroke-linecap="butt" stroke-dashoffset="" fill-rule="nonzero" opacity="1" marker-start="" marker-mid="" marker-end="" d="M3.403781233795529,5.426169473927375 L2996.632017313339,5.426169473927375 L2996.632017313339,2996.9766456604934 L3.403781233795529,2996.9766456604934 L3.403781233795529,5.426169473927375 z" id="svg_27" class="" filter=""/><path class="st0" d="M147.93,1257.47h33.94c24.88,0,45.04-20.17,45.04-45.04V435.92c0-24.88-20.17-45.04-45.04-45.04h-33.94  c-24.88,0-45.04,20.17-45.04,45.04v776.51C102.89,1237.3,123.05,1257.47,147.93,1257.47z" id="svg_1"/><path class="st0" d="M309.46,1485.08h33.94c24.88,0,45.04-20.17,45.04-45.04V663.53c0-24.88-20.17-45.04-45.04-45.04h-33.94  c-24.88,0-45.04,20.17-45.04,45.04v776.51C264.42,1464.92,284.59,1485.08,309.46,1485.08z" id="svg_2"/><path class="st1" d="M471,1767.77h33.94c24.88,0,45.04-20.17,45.04-45.04V946.22c0-24.88-20.17-45.04-45.04-45.04H471  c-24.88,0-45.04,20.17-45.04,45.04v776.51C425.95,1747.6,446.12,1767.77,471,1767.77z" id="svg_3"/><path class="st1" d="M639.87,2028.42h33.94c24.88,0,45.04-20.17,45.04-45.04v-776.51c0-24.88-20.17-45.04-45.04-45.04h-33.94  c-24.88,0-45.04,20.17-45.04,45.04v776.51C594.83,2008.26,615,2028.42,639.87,2028.42z" id="svg_4"/><path class="st1" d="M808.75,2296.42h33.94c24.88,0,45.04-20.17,45.04-45.04v-776.51c0-24.88-20.17-45.04-45.04-45.04h-33.94  c-24.88,0-45.04,20.17-45.04,45.04v776.51C763.71,2276.26,783.87,2296.42,808.75,2296.42z" id="svg_5"/><path class="st1" d="M977.63,2568.09h33.94c24.88,0,45.04-20.17,45.04-45.04v-776.51c0-24.88-20.17-45.04-45.04-45.04h-33.94  c-24.88,0-45.04,20.17-45.04,45.04v776.51C932.58,2547.93,952.75,2568.09,977.63,2568.09z" id="svg_6"/><path class="st0" d="M1146.5,2296.42h33.94c24.88,0,45.04-20.17,45.04-45.04v-776.51c0-24.88-20.17-45.04-45.04-45.04h-33.94  c-24.88,0-45.04,20.17-45.04,45.04v776.51C1101.46,2276.26,1121.63,2296.42,1146.5,2296.42z" id="svg_7"/><path class="st0" d="M1315.38,2028.42h33.94c24.88,0,45.04-20.17,45.04-45.04v-776.51c0-24.88-20.17-45.04-45.04-45.04h-33.94  c-24.88,0-45.04,20.17-45.04,45.04v776.51C1270.33,2008.26,1290.5,2028.42,1315.38,2028.42z" id="svg_8"/><path class="st1" d="M2852.07,1263.07h-33.94c-24.88,0-45.04-20.17-45.04-45.04V441.52c0-24.88,20.17-45.04,45.04-45.04h33.94  c24.88,0,45.04,20.17,45.04,45.04v776.51C2897.11,1242.9,2876.95,1263.07,2852.07,1263.07z" id="svg_9"/><path class="st0" d="M2690.54,1490.68h-33.94c-24.88,0-45.04-20.17-45.04-45.04V669.13c0-24.88,20.17-45.04,45.04-45.04h33.94  c24.88,0,45.04,20.17,45.04,45.04v776.51C2735.58,1470.52,2715.41,1490.68,2690.54,1490.68z" id="svg_10"/><path class="st0" d="M2529,1773.37h-33.94c-24.88,0-45.04-20.17-45.04-45.04V951.82c0-24.88,20.17-45.04,45.04-45.04H2529  c24.88,0,45.04,20.17,45.04,45.04v776.51C2574.05,1753.2,2553.88,1773.37,2529,1773.37z" id="svg_11"/><path class="st1" d="M2360.13,2034.02h-33.94c-24.88,0-45.04-20.17-45.04-45.04v-776.51c0-24.88,20.17-45.04,45.04-45.04h33.94  c24.88,0,45.04,20.17,45.04,45.04v776.51C2405.17,2013.86,2385,2034.02,2360.13,2034.02z" id="svg_12"/><path class="st1" d="M2191.25,2302.02h-33.94c-24.88,0-45.04-20.17-45.04-45.04v-776.51c0-24.88,20.17-45.04,45.04-45.04h33.94  c24.88,0,45.04,20.17,45.04,45.04v776.51C2236.29,2281.86,2216.13,2302.02,2191.25,2302.02z" id="svg_13"/><path class="st0" d="M2022.37,2573.69h-33.94c-24.88,0-45.04-20.17-45.04-45.04v-776.51c0-24.88,20.17-45.04,45.04-45.04h33.94  c24.88,0,45.04,20.17,45.04,45.04v776.51C2067.42,2553.53,2047.25,2573.69,2022.37,2573.69z" id="svg_14"/><path class="st0" d="M1853.5,2302.02h-33.94c-24.88,0-45.04-20.17-45.04-45.04v-776.51c0-24.88,20.17-45.04,45.04-45.04h33.94  c24.88,0,45.04,20.17,45.04,45.04v776.51C1898.54,2281.86,1878.37,2302.02,1853.5,2302.02z" id="svg_15"/><path class="st1" d="M1684.62,2034.02h-33.94c-24.88,0-45.04-20.17-45.04-45.04v-776.51c0-24.88,20.17-45.04,45.04-45.04h33.94  c24.88,0,45.04,20.17,45.04,45.04v776.51C1729.67,2013.86,1709.5,2034.02,1684.62,2034.02z" id="svg_16"/><path class="st1" d="M1483.03,1767.77h33.94c24.88,0,45.04-20.17,45.04-45.04V946.22c0-24.88-20.17-45.04-45.04-45.04h-33.94  c-24.88,0-45.04,20.17-45.04,45.04v776.51C1437.99,1747.6,1458.15,1767.77,1483.03,1767.77z" id="svg_17"/></g><defs><filter id="f002" xmlns:inkscape="http://www.inkscape.org/namespaces/inkscape" inkscape:label="Smart jelly" inkscape:menu="Bevels" inkscape:menu-tooltip="Same as Matte jelly but with more controls" height="1" width="1" y="0" x="0" color-interpolation-filters="sRGB">
            <feBlend result="result3" mode="normal" in2="result91"/>
            <feComposite result="result4" operator="arithmetic" k2="1" in2="result3"/>
            <feColorMatrix id="feColorMatrix3006" in="result4" result="result0" values="1 0 0 0 0 0 1 0 0 0 0 0 1 0 0 0 0 0 0.85 0 "/>
            <feGaussianBlur stdDeviation="7" in="SourceAlpha"/>
            <feSpecularLighting result="result1" specularExponent="25" specularConstant="1" surfaceScale="5">
                <feDistantLight azimuth="225" elevation="60"/>
            </feSpecularLighting>
            <feComposite in2="result0" k1=".5" k2="1" operator="arithmetic" k3=".5"/>
            <feComposite result="result2" in2="result0" operator="atop"/>
            <feComposite operator="in" in2="SourceGraphic"/>
        </filter></defs></svg>