<?xml version="1.0" encoding="utf-8"?>
<!-- Generator: Adobe Illustrator 23.0.6, SVG Export Plug-In . SVG Version: 6.00 Build 0)  -->
<svg version="1.1" id="Lag_1" xmlns="http://www.w3.org/2000/svg" xmlns:xlink="http://www.w3.org/1999/xlink" x="0px" y="0px"
	 viewBox="0 0 3000 3000" style="enable-background:new 0 0 3000 3000;" xml:space="preserve">
<style type="text/css">
	.st0{clip-path:url(#SVGID_2_);fill:#1D71B8;}
	.st1{clip-path:url(#SVGID_2_);fill:#3C3C3B;}
	.st2{fill:#3C3C3B;}
	.st3{font-family:'DaysSansBlack';}
	.st4{font-size:285.1787px;}
</style>
<g>
	<defs>
		<rect id="SVGID_1_" width="3000" height="3000"/>
	</defs>
	<clipPath id="SVGID_2_">
		<use xlink:href="#SVGID_1_"  style="overflow:visible;"/>
	</clipPath>
	<path class="st0" d="M546.59,1197.3L546.59,1197.3c24.88,0,45.04-20.17,45.04-45.04V612.88c0-24.88-20.17-45.04-45.04-45.04
		c-24.88,0-45.04,20.17-45.04,45.04v539.38C501.55,1177.14,521.72,1197.3,546.59,1197.3"/>
	<path class="st0" d="M663.93,1362.64L663.93,1362.64c24.88,0,45.04-20.17,45.04-45.04V778.21c0-24.88-20.17-45.05-45.04-45.05
		c-24.88,0-45.04,20.17-45.04,45.05v539.38C618.88,1342.47,639.05,1362.64,663.93,1362.64"/>
	<path class="st1" d="M781.26,1567.97L781.26,1567.97c24.88,0,45.04-20.17,45.04-45.04V983.54c0-24.88-20.17-45.04-45.04-45.04
		c-24.88,0-45.04,20.17-45.04,45.04v539.38C736.22,1547.8,756.38,1567.97,781.26,1567.97"/>
	<path class="st1" d="M903.93,1757.3L903.93,1757.3c24.88,0,45.04-20.17,45.04-45.04v-539.38c0-24.88-20.17-45.04-45.04-45.04
		c-24.88,0-45.04,20.17-45.04,45.04v539.38C858.88,1737.14,879.05,1757.3,903.93,1757.3"/>
	<path class="st1" d="M1026.59,1951.97L1026.59,1951.97c24.88,0,45.04-20.17,45.04-45.04v-539.38c0-24.88-20.17-45.04-45.04-45.04
		c-24.88,0-45.04,20.17-45.04,45.04v539.38C981.55,1931.8,1001.72,1951.97,1026.59,1951.97"/>
	<path class="st1" d="M1149.26,2149.3L1149.26,2149.3c24.88,0,45.04-20.17,45.04-45.04v-539.38c0-24.88-20.17-45.04-45.04-45.04
		c-24.88,0-45.04,20.17-45.04,45.04v539.38C1104.22,2129.14,1124.38,2149.3,1149.26,2149.3"/>
	<path class="st0" d="M1271.93,1951.97L1271.93,1951.97c24.88,0,45.04-20.17,45.04-45.04v-539.38c0-24.88-20.17-45.04-45.04-45.04
		c-24.88,0-45.04,20.17-45.04,45.04v539.38C1226.88,1931.8,1247.05,1951.97,1271.93,1951.97"/>
	<path class="st0" d="M1394.59,1757.3L1394.59,1757.3c24.88,0,45.04-20.17,45.04-45.04v-539.38c0-24.88-20.17-45.04-45.04-45.04
		c-24.88,0-45.04,20.17-45.04,45.04v539.38C1349.55,1737.14,1369.72,1757.3,1394.59,1757.3"/>
	<path class="st1" d="M2486.15,1201.37L2486.15,1201.37c-24.88,0-45.05-20.17-45.05-45.04V616.95c0-24.88,20.17-45.04,45.05-45.04
		c24.88,0,45.04,20.17,45.04,45.04v539.38C2531.19,1181.2,2511.03,1201.37,2486.15,1201.37"/>
	<path class="st0" d="M2368.82,1366.7L2368.82,1366.7c-24.88,0-45.04-20.17-45.04-45.04V782.28c0-24.88,20.17-45.04,45.04-45.04
		c24.88,0,45.04,20.17,45.04,45.04v539.38C2413.86,1346.54,2393.69,1366.7,2368.82,1366.7"/>
	<path class="st0" d="M2251.48,1572.04L2251.48,1572.04c-24.88,0-45.04-20.17-45.04-45.04V987.61c0-24.88,20.17-45.05,45.04-45.05
		c24.88,0,45.04,20.17,45.04,45.05v539.38C2296.53,1551.87,2276.36,1572.04,2251.48,1572.04"/>
	<path class="st1" d="M2128.82,1761.37L2128.82,1761.37c-24.88,0-45.04-20.17-45.04-45.04v-539.38c0-24.88,20.17-45.04,45.04-45.04
		c24.88,0,45.04,20.17,45.04,45.04v539.38C2173.86,1741.2,2153.69,1761.37,2128.82,1761.37"/>
	<path class="st1" d="M2006.15,1956.04L2006.15,1956.04c-24.88,0-45.05-20.17-45.05-45.04v-539.38c0-24.88,20.17-45.05,45.05-45.05
		c24.88,0,45.04,20.17,45.04,45.05v539.38C2051.19,1935.87,2031.03,1956.04,2006.15,1956.04"/>
	<path class="st0" d="M1883.48,2153.37L1883.48,2153.37c-24.88,0-45.04-20.17-45.04-45.04v-539.38c0-24.88,20.17-45.05,45.04-45.05
		c24.88,0,45.04,20.17,45.04,45.05v539.38C1928.53,2133.2,1908.36,2153.37,1883.48,2153.37"/>
	<path class="st0" d="M1760.82,1956.04L1760.82,1956.04c-24.88,0-45.04-20.17-45.04-45.04v-539.38c0-24.88,20.17-45.05,45.04-45.05
		c24.88,0,45.04,20.17,45.04,45.05v539.38C1805.86,1935.87,1785.69,1956.04,1760.82,1956.04"/>
	<path class="st1" d="M1638.15,1761.37L1638.15,1761.37c-24.88,0-45.05-20.17-45.05-45.04v-539.38c0-24.88,20.17-45.04,45.05-45.04
		c24.88,0,45.04,20.17,45.04,45.04v539.38C1683.19,1741.2,1663.03,1761.37,1638.15,1761.37"/>
	<path class="st1" d="M1516.37,1567.97L1516.37,1567.97c24.88,0,45.04-20.17,45.04-45.04V983.54c0-24.88-20.17-45.04-45.04-45.04
		c-24.88,0-45.04,20.17-45.04,45.04v539.38C1471.33,1547.8,1491.49,1567.97,1516.37,1567.97"/>
</g>
<text transform="matrix(1 0 0 1 617.8109 2450.1406)" class="st2 st3 st4">WeBravo</text>
</svg>
