<?xml version="1.0" encoding="utf-8"?>
<!-- Generator: Adobe Illustrator 24.1.1, SVG Export Plug-In . SVG Version: 6.00 Build 0)  -->
<svg version="1.1" id="Layer_1" xmlns="http://www.w3.org/2000/svg" xmlns:xlink="http://www.w3.org/1999/xlink" x="0px" y="0px"
	 viewBox="0 0 3000 3000" style="enable-background:new 0 0 3000 3000;" xml:space="preserve">
<style type="text/css">
	.st0{fill:#1D71B8;}
	.st1{fill:#3C3C3B;}
</style>
<path class="st0" d="M147.93,1257.47h33.94c24.88,0,45.04-20.17,45.04-45.04V435.92c0-24.88-20.17-45.04-45.04-45.04h-33.94
	c-24.88,0-45.04,20.17-45.04,45.04v776.51C102.89,1237.3,123.05,1257.47,147.93,1257.47z"/>
<path class="st0" d="M309.46,1485.08h33.94c24.88,0,45.04-20.17,45.04-45.04V663.53c0-24.88-20.17-45.04-45.04-45.04h-33.94
	c-24.88,0-45.04,20.17-45.04,45.04v776.51C264.42,1464.92,284.59,1485.08,309.46,1485.08z"/>
<path class="st1" d="M471,1767.77h33.94c24.88,0,45.04-20.17,45.04-45.04V946.22c0-24.88-20.17-45.04-45.04-45.04H471
	c-24.88,0-45.04,20.17-45.04,45.04v776.51C425.95,1747.6,446.12,1767.77,471,1767.77z"/>
<path class="st1" d="M639.87,2028.42h33.94c24.88,0,45.04-20.17,45.04-45.04v-776.51c0-24.88-20.17-45.04-45.04-45.04h-33.94
	c-24.88,0-45.04,20.17-45.04,45.04v776.51C594.83,2008.26,615,2028.42,639.87,2028.42z"/>
<path class="st1" d="M808.75,2296.42h33.94c24.88,0,45.04-20.17,45.04-45.04v-776.51c0-24.88-20.17-45.04-45.04-45.04h-33.94
	c-24.88,0-45.04,20.17-45.04,45.04v776.51C763.71,2276.26,783.87,2296.42,808.75,2296.42z"/>
<path class="st1" d="M977.63,2568.09h33.94c24.88,0,45.04-20.17,45.04-45.04v-776.51c0-24.88-20.17-45.04-45.04-45.04h-33.94
	c-24.88,0-45.04,20.17-45.04,45.04v776.51C932.58,2547.93,952.75,2568.09,977.63,2568.09z"/>
<path class="st0" d="M1146.5,2296.42h33.94c24.88,0,45.04-20.17,45.04-45.04v-776.51c0-24.88-20.17-45.04-45.04-45.04h-33.94
	c-24.88,0-45.04,20.17-45.04,45.04v776.51C1101.46,2276.26,1121.63,2296.42,1146.5,2296.42z"/>
<path class="st0" d="M1315.38,2028.42h33.94c24.88,0,45.04-20.17,45.04-45.04v-776.51c0-24.88-20.17-45.04-45.04-45.04h-33.94
	c-24.88,0-45.04,20.17-45.04,45.04v776.51C1270.33,2008.26,1290.5,2028.42,1315.38,2028.42z"/>
<path class="st1" d="M2852.07,1263.07h-33.94c-24.88,0-45.04-20.17-45.04-45.04V441.52c0-24.88,20.17-45.04,45.04-45.04h33.94
	c24.88,0,45.04,20.17,45.04,45.04v776.51C2897.11,1242.9,2876.95,1263.07,2852.07,1263.07z"/>
<path class="st0" d="M2690.54,1490.68h-33.94c-24.88,0-45.04-20.17-45.04-45.04V669.13c0-24.88,20.17-45.04,45.04-45.04h33.94
	c24.88,0,45.04,20.17,45.04,45.04v776.51C2735.58,1470.52,2715.41,1490.68,2690.54,1490.68z"/>
<path class="st0" d="M2529,1773.37h-33.94c-24.88,0-45.04-20.17-45.04-45.04V951.82c0-24.88,20.17-45.04,45.04-45.04H2529
	c24.88,0,45.04,20.17,45.04,45.04v776.51C2574.05,1753.2,2553.88,1773.37,2529,1773.37z"/>
<path class="st1" d="M2360.13,2034.02h-33.94c-24.88,0-45.04-20.17-45.04-45.04v-776.51c0-24.88,20.17-45.04,45.04-45.04h33.94
	c24.88,0,45.04,20.17,45.04,45.04v776.51C2405.17,2013.86,2385,2034.02,2360.13,2034.02z"/>
<path class="st1" d="M2191.25,2302.02h-33.94c-24.88,0-45.04-20.17-45.04-45.04v-776.51c0-24.88,20.17-45.04,45.04-45.04h33.94
	c24.88,0,45.04,20.17,45.04,45.04v776.51C2236.29,2281.86,2216.13,2302.02,2191.25,2302.02z"/>
<path class="st0" d="M2022.37,2573.69h-33.94c-24.88,0-45.04-20.17-45.04-45.04v-776.51c0-24.88,20.17-45.04,45.04-45.04h33.94
	c24.88,0,45.04,20.17,45.04,45.04v776.51C2067.42,2553.53,2047.25,2573.69,2022.37,2573.69z"/>
<path class="st0" d="M1853.5,2302.02h-33.94c-24.88,0-45.04-20.17-45.04-45.04v-776.51c0-24.88,20.17-45.04,45.04-45.04h33.94
	c24.88,0,45.04,20.17,45.04,45.04v776.51C1898.54,2281.86,1878.37,2302.02,1853.5,2302.02z"/>
<path class="st1" d="M1684.62,2034.02h-33.94c-24.88,0-45.04-20.17-45.04-45.04v-776.51c0-24.88,20.17-45.04,45.04-45.04h33.94
	c24.88,0,45.04,20.17,45.04,45.04v776.51C1729.67,2013.86,1709.5,2034.02,1684.62,2034.02z"/>
<path class="st1" d="M1483.03,1767.77h33.94c24.88,0,45.04-20.17,45.04-45.04V946.22c0-24.88-20.17-45.04-45.04-45.04h-33.94
	c-24.88,0-45.04,20.17-45.04,45.04v776.51C1437.99,1747.6,1458.15,1767.77,1483.03,1767.77z"/>
</svg>
