<?xml version="1.0" encoding="utf-8"?>
<!-- Generator: Adobe Illustrator 23.0.6, SVG Export Plug-In . SVG Version: 6.00 Build 0)  -->
<svg version="1.1" id="Lag_1" xmlns="http://www.w3.org/2000/svg" xmlns:xlink="http://www.w3.org/1999/xlink" x="0px" y="0px"
	 viewBox="0 0 3000 3000" style="enable-background:new 0 0 3000 3000;" xml:space="preserve">
<style type="text/css">
	.st0{clip-path:url(#SVGID_2_);fill:#1D71B8;}
	.st1{clip-path:url(#SVGID_2_);fill:#3C3C3B;}
	.st2{fill:#3C3C3B;}
	.st3{font-family:'DaysSansBlack';}
	.st4{font-size:269.5156px;}
</style>
<g>
	<defs>
		<rect id="SVGID_1_" x="-89.09" y="881.35" width="1413.81" height="1413.81"/>
	</defs>
	<clipPath id="SVGID_2_">
		<use xlink:href="#SVGID_1_"  style="overflow:visible;"/>
	</clipPath>
	<path class="st0" d="M168.5,1445.6L168.5,1445.6c11.72,0,21.23-9.5,21.23-21.23v-254.19c0-11.72-9.5-21.23-21.23-21.23
		c-11.72,0-21.23,9.5-21.23,21.23v254.19C147.27,1436.09,156.78,1445.6,168.5,1445.6"/>
	<path class="st0" d="M223.8,1523.51L223.8,1523.51c11.72,0,21.23-9.5,21.23-21.23v-254.19c0-11.72-9.5-21.23-21.23-21.23
		c-11.72,0-21.23,9.5-21.23,21.23v254.19C202.57,1514.01,212.07,1523.51,223.8,1523.51"/>
	<path class="st1" d="M279.09,1620.28L279.09,1620.28c11.72,0,21.23-9.5,21.23-21.23v-254.19c0-11.72-9.5-21.23-21.23-21.23
		s-21.23,9.5-21.23,21.23v254.19C257.86,1610.78,267.37,1620.28,279.09,1620.28"/>
	<path class="st1" d="M336.9,1709.51L336.9,1709.51c11.72,0,21.23-9.5,21.23-21.23v-254.19c0-11.72-9.5-21.23-21.23-21.23
		s-21.23,9.5-21.23,21.23v254.19C315.67,1700,325.18,1709.51,336.9,1709.51"/>
	<path class="st1" d="M394.71,1801.25L394.71,1801.25c11.72,0,21.23-9.5,21.23-21.23v-254.19c0-11.72-9.5-21.23-21.23-21.23
		c-11.72,0-21.23,9.5-21.23,21.23v254.19C373.48,1791.74,382.99,1801.25,394.71,1801.25"/>
	<path class="st1" d="M452.52,1894.24L452.52,1894.24c11.72,0,21.23-9.5,21.23-21.23v-254.19c0-11.72-9.5-21.23-21.23-21.23
		c-11.72,0-21.23,9.5-21.23,21.23v254.19C431.29,1884.74,440.79,1894.24,452.52,1894.24"/>
	<path class="st0" d="M510.33,1801.25L510.33,1801.25c11.72,0,21.23-9.5,21.23-21.23v-254.19c0-11.72-9.5-21.23-21.23-21.23
		c-11.72,0-21.23,9.5-21.23,21.23v254.19C489.1,1791.74,498.6,1801.25,510.33,1801.25"/>
	<path class="st0" d="M568.14,1709.51L568.14,1709.51c11.72,0,21.23-9.5,21.23-21.23v-254.19c0-11.72-9.5-21.23-21.23-21.23
		c-11.72,0-21.23,9.5-21.23,21.23v254.19C546.91,1700,556.41,1709.51,568.14,1709.51"/>
	<path class="st1" d="M1082.55,1447.51L1082.55,1447.51c-11.72,0-21.23-9.5-21.23-21.23v-254.19c0-11.72,9.5-21.23,21.23-21.23
		c11.72,0,21.23,9.5,21.23,21.23v254.19C1103.78,1438.01,1094.28,1447.51,1082.55,1447.51"/>
	<path class="st0" d="M1027.26,1525.43L1027.26,1525.43c-11.72,0-21.23-9.5-21.23-21.23v-254.19c0-11.72,9.5-21.23,21.23-21.23
		c11.72,0,21.23,9.5,21.23,21.23v254.19C1048.49,1515.93,1038.98,1525.43,1027.26,1525.43"/>
	<path class="st0" d="M971.96,1622.2L971.96,1622.2c-11.72,0-21.23-9.5-21.23-21.23v-254.19c0-11.72,9.5-21.23,21.23-21.23
		c11.72,0,21.23,9.5,21.23,21.23v254.19C993.19,1612.69,983.69,1622.2,971.96,1622.2"/>
	<path class="st1" d="M914.15,1711.42L914.15,1711.42c-11.72,0-21.23-9.5-21.23-21.23V1436c0-11.72,9.5-21.23,21.23-21.23
		c11.72,0,21.23,9.5,21.23,21.23v254.19C935.38,1701.92,925.88,1711.42,914.15,1711.42"/>
	<path class="st1" d="M856.34,1803.16L856.34,1803.16c-11.72,0-21.23-9.5-21.23-21.23v-254.19c0-11.72,9.5-21.23,21.23-21.23
		c11.72,0,21.23,9.5,21.23,21.23v254.19C877.57,1793.66,868.07,1803.16,856.34,1803.16"/>
	<path class="st0" d="M798.53,1896.16L798.53,1896.16c-11.72,0-21.23-9.5-21.23-21.23v-254.19c0-11.72,9.5-21.23,21.23-21.23
		s21.23,9.5,21.23,21.23v254.19C819.76,1886.66,810.26,1896.16,798.53,1896.16"/>
	<path class="st0" d="M740.73,1803.16L740.73,1803.16c-11.72,0-21.23-9.5-21.23-21.23v-254.19c0-11.72,9.5-21.23,21.23-21.23
		c11.72,0,21.23,9.5,21.23,21.23v254.19C761.95,1793.66,752.45,1803.16,740.73,1803.16"/>
	<path class="st1" d="M682.92,1711.42L682.92,1711.42c-11.72,0-21.23-9.5-21.23-21.23V1436c0-11.72,9.5-21.23,21.23-21.23
		c11.72,0,21.23,9.5,21.23,21.23v254.19C704.14,1701.92,694.64,1711.42,682.92,1711.42"/>
	<path class="st1" d="M625.53,1620.28L625.53,1620.28c11.72,0,21.23-9.5,21.23-21.23v-254.19c0-11.72-9.5-21.23-21.23-21.23
		c-11.72,0-21.23,9.5-21.23,21.23v254.19C604.3,1610.78,613.8,1620.28,625.53,1620.28"/>
</g>
<text transform="matrix(1 0 0 1 1228.0007 1710.2051)" class="st2 st3 st4">WeBravo</text>
</svg>
